<svg id="Group_1" data-name="Group 1" xmlns="http://www.w3.org/2000/svg" viewBox="0 0 432.38 57.23"><defs><style>.cls-1,.cls-2,.cls-3{fill:#313030;}.cls-2{font-size:14px;font-family:Britannic Bold;}.cls-3{font-size:18.67px;font-family:Myriad Pro;}</style></defs><title>3</title><g id="Shape_4" data-name="Shape 4"><path class="cls-1" d="M119.14,159.65a0.92,0.92,0,0,0,0,1.83A0.92,0.92,0,0,0,119.14,159.65Zm0.5-1.2,0.21-7.09h-1.42l0.21,7.09h1Zm5-7.16a18.35,18.35,0,0,0-2.73.21v9.79a20.69,20.69,0,0,0,2.33.12,6.12,6.12,0,0,0,4.39-1.43,5.26,5.26,0,0,0,1.43-3.87,4.58,4.58,0,0,0-1.4-3.57A5.69,5.69,0,0,0,124.68,151.3Zm-0.15,9.08a8.09,8.09,0,0,1-1.3-.07v-7.85a7.28,7.28,0,0,1,1.5-.13c2.71,0,4,1.49,4,3.84C128.76,158.84,127.27,160.37,124.53,160.37Zm11.26-9.17c-2.65,0-4.62,2.07-4.62,5.23s1.84,5,4.47,5,4.62-1.82,4.62-5.24C140.26,153.29,138.51,151.21,135.79,151.21Zm-0.07,9.23c-2,0-3.17-1.9-3.17-4s1.06-4.15,3.18-4.15,3.17,2.07,3.17,4C138.9,158.56,137.75,160.43,135.72,160.43Zm10.85-8.15a4.67,4.67,0,0,1,2,.41l0.31-1a5.32,5.32,0,0,0-2.36-.44,5,5,0,0,0-5.19,5.23,4.65,4.65,0,0,0,4.91,5,6.36,6.36,0,0,0,2.62-.47l-0.27-1a5.13,5.13,0,0,1-2.09.41c-2.42,0-3.82-1.56-3.82-4C142.69,153.78,144.24,152.28,146.57,152.28Zm3.18,0.18h3v8.86h1.3v-8.86h3v-1.09h-7.36v1.09Zm12.83,1.65c-0.38.75-.72,1.4-1,2.05h0c-0.31-.69-0.6-1.3-1-2.05l-1.4-2.75H157.7l3.14,5.73v4.22h1.3v-4.24l3.33-5.71H164ZM169,151.3a14.85,14.85,0,0,0-2.46.19v9.83h1.28v-4a4.41,4.41,0,0,0,1,.09,4.12,4.12,0,0,0,3-1.09,2.93,2.93,0,0,0,.77-2.13,2.68,2.68,0,0,0-.87-2.08A4.08,4.08,0,0,0,169,151.3Zm-0.12,5.09a4.3,4.3,0,0,1-1.06-.1v-3.87a5.38,5.38,0,0,1,1.21-.1c1.42,0,2.34.63,2.34,1.95S170.39,156.39,168.84,156.39Zm6.78,3.85v-3.59h3.86v-1.06h-3.86v-3.14h4.08v-1.08h-5.37v9.95h5.59v-1.08h-4.31Z" transform="translate(-68.41 -151.21)"/></g><g id="Shape_5" data-name="Shape 5"><path class="cls-1" d="M118.27,188.88H124v-9.17h6v-2h-6v-6.56h7.13v-2H118.27v19.67Zm20.43-9.77h5.92v-2h-5.92v-6h7v-2H133v19.67h13.94v-2h-8.23v-7.8Zm17.36,4.15h7.08v-3.79h-7.08v3.79ZM186.91,181a14.35,14.35,0,0,1,.19,1.92,5.11,5.11,0,0,1-1.13,3.39,3.54,3.54,0,0,1-2.83,1.35q-4.12,0-4.12-7.94,0-9.24,3.69-9.24,3.48,0,3.48,4.35,0,0.48,0,1.34l2.45-1.12q0-6.14-6.38-6.14a8.41,8.41,0,0,0-6.64,2.9,11.06,11.06,0,0,0-2.55,7.57q0,9.84,8.74,9.84a8.45,8.45,0,0,0,5.56-1.71,5.64,5.64,0,0,0,2.07-4.58q0-.55-0.06-1.3Zm12.68-12.12q-8.9,0-8.9,9.94,0,10.41,8.74,10.41T208.17,179Q208.17,168.86,199.59,168.86Zm2,17a2.23,2.23,0,0,1-4.36,0,26.56,26.56,0,0,1-.57-6.82,26.56,26.56,0,0,1,.57-6.82,2.23,2.23,0,0,1,4.36,0,26.58,26.58,0,0,1,.57,6.82A26.57,26.57,0,0,1,201.61,185.86Zm21.53-3.21-9-13.45h-3.61v19.67h1.91V176.43l8.21,12.45h4.36V169.21h-1.91v13.45Zm18-11.47v-2H228.32v19.67H234v-9.17h6v-2h-6v-6.56h7.13Z" transform="translate(-68.41 -151.21)"/></g><g id="Front-End_Engineers_Meet" data-name="Front-End Engineers Meet"><text class="cls-2" transform="translate(49.86 52.6)">FRONT-END ENGINEERS MEET</text></g><g id="Shape_3" data-name="Shape 3"><polygon class="cls-1" points="38.27 17.27 38.27 0.07 0 21.52 0 35.88 38.27 57.23 38.27 40.32 18.24 28.79 18.24 28.7 38.27 17.27"/></g><g id="Shape_2" data-name="Shape 2"><path class="cls-1" d="M462.52,151.28q0,8.55.09,17.1l19.84,11.34,0.09,0.19-20,11.43v17.1l38.27-21.26V172.82Z" transform="translate(-68.41 -151.21)"/></g><g id="Shape_1" data-name="Shape 1"><polygon class="cls-1" points="385.7 0.16 363.4 57.23 368.88 57.23 391.56 0.16 385.7 0.16"/></g><g id="JAN_30_2016" data-name="JAN 30, 2016"><text class="cls-3" transform="translate(258.13 38) scale(1.01 1)">JAN 30, 2016</text></g></svg>